<svg id="Layer_1" data-name="Layer 1" xmlns="http://www.w3.org/2000/svg" width="242" height="75" viewBox="0 0 242 75"><defs><style>.cls-1{fill:none;}.cls-2{fill:#fff;}.cls-3{fill:#887054;}</style></defs><rect class="cls-1" x="-679" y="-312.5" width="1600" height="700"/><path class="cls-2" d="M101.8776,22.77a5.7944,5.7944,0,0,1-.38,1.7471,4.833,4.833,0,0,1-2.05.39c-1.8346,0-3.64-.79-3.64-3.3375a3.3586,3.3586,0,0,1,3.6693-3.3961,4.2674,4.2674,0,0,1,2.03.4291,5.9553,5.9553,0,0,1,.1659,1.6011l-.3515.0487a1.81,1.81,0,0,0-1.8743-1.7083c-1.3758,0-2.2143,1.1619-2.2143,2.8794,0,.3219,0,3.1131,2.2539,3.1131a2.1077,2.1077,0,0,0,2.0394-1.8248Z"/><path class="cls-2" d="M102.8418,21.6671a3.3449,3.3449,0,0,1,3.5034-3.4935,3.1083,3.1083,0,0,1,3.4159,3.24,3.3473,3.3473,0,0,1-3.5133,3.4935,3.1053,3.1053,0,0,1-3.406-3.24m3.5133,2.87c1.3667,0,1.9815-1.337,1.9815-2.8885,0-1.611-.5859-3.104-2.0987-3.104-1.3567,0-1.9716,1.337-1.9716,2.8886,0,1.61.5859,3.1039,2.0888,3.1039"/><path class="cls-2" d="M110.8026,24.5075l.2929-.0388c.4292-.0586.4292-.42.4292-1.7083V18.32a3.3367,3.3367,0,0,1,.4786-.0678l4.3725,4.6943V20.32c0-1.59-.0784-1.6589-.5959-1.7175l-.2823-.0289V18.32h2.1855v.2541l-.293.0388c-.4292.0586-.4292.42-.4292,1.7076v4.4409a2.72,2.72,0,0,1-.5075.0784l-4.3428-4.6357v2.5955c0,1.5326.0784,1.6011.5959,1.6787l.2823.03v.2534h-2.1862Z"/><path class="cls-2" d="M124.9425,24.42a7.6528,7.6528,0,0,1-2.4594.4878c-2.05,0-3.807-.917-3.807-3.3862,0-2.43,1.8742-3.3474,3.7378-3.3474a4.352,4.352,0,0,1,2.0112.38,6.1924,6.1924,0,0,1,.2146,1.6589l-.3813.0487a1.8378,1.8378,0,0,0-1.9708-1.7175c-1.5615,0-2.1862,1.2685-2.1862,2.8985,0,1.9807,1.025,3.094,2.5081,3.094a4.8055,4.8055,0,0,0,.7419-.0685v-.9367c0-.6734,0-.713-.4984-.8006l-.4779-.0684v-.2534h2.782v.2534l-.1955.03c-.3219.0585-.3417.1659-.3417.7807,0,.7221.0388.7023.293.7221Z"/><path class="cls-2" d="M128.0235,23.3265c0,.9664,0,1.0836.46,1.1513l.2337.03v.2534h-2.6542v-.2534l.2336-.03c.4588-.0677.4588-.1849.4588-1.1612v-3.562c0-.9862,0-1.0836-.468-1.1521l-.2244-.0288V18.32h2.8109c.8979,0,2.3026.0981,2.3026,1.63a1.9416,1.9416,0,0,1-1.2487,1.6695,15.4567,15.4567,0,0,0,1.5615,2.6253.84.84,0,0,0,.624.2633v.2534h-.8485a1.65,1.65,0,0,1-1.582-1.0539l-.37-.7221c-.3417-.6537-.3615-1.0151-.9763-1.0151h-.3128Zm0-1.7273h.4794a1.2979,1.2979,0,0,0,1.404-1.5029,1.308,1.308,0,0,0-1.375-1.4055,1.7821,1.7821,0,0,0-.5084.0685Z"/><path class="cls-2" d="M132.59,24.5075l.2344-.03c.4589-.0875.4589-.0578.4589-1.1612V19.7645c0-1.1034,0-1.0539-.4589-1.162l-.2344-.0289V18.32h4.4988a7.1532,7.1532,0,0,1,.1179,1.5812l-.3515.0487c-.2542-1.2388-.5761-1.2586-1.6011-1.2586h-.7023v2.5081h.6635c.869,0,1.0052-.01,1.0638-.4193l.0487-.3424h.2542V22.38h-.2542l-.0487-.3128c-.0685-.4292-.2146-.4292-1.025-.4292h-.7023v2.6063a4.2432,4.2432,0,0,0,.9854.1461c1.4641,0,1.5721-.7518,1.7669-1.4838l.3508.0684a6.8771,6.8771,0,0,1-.3219,1.786H132.59Z"/><path class="cls-2" d="M142.1621,20.0277c-.1271-.4977-.3119-1.4831-1.3765-1.4831a.9265.9265,0,0,0-.9756.9755c0,1.503,3.1222,1.4056,3.1222,3.4944,0,1.3856-1.2289,1.8932-2.4,1.8932a3.5809,3.5809,0,0,1-1.7175-.39,4.51,4.51,0,0,1-.2831-1.8354l.4581-.0974c.137.5859.4589,1.9526,1.7084,1.9526a.9954.9954,0,0,0,1.025-1.0836c0-1.65-3.0256-1.5226-3.0256-3.5232,0-1.24.917-1.757,2.1763-1.757a2.8861,2.8861,0,0,1,1.5318.3614,9.395,9.395,0,0,1,.1073,1.493Z"/><path class="cls-2" d="M147.6451,20.0277c-.1271-.4977-.3128-1.4831-1.3766-1.4831a.9265.9265,0,0,0-.9755.9755c0,1.503,3.1229,1.4056,3.1229,3.4944,0,1.3856-1.23,1.8932-2.4008,1.8932a3.58,3.58,0,0,1-1.7174-.39,4.5079,4.5079,0,0,1-.2839-1.8354l.4589-.0974c.137.5859.4588,1.9526,1.7083,1.9526a.9954.9954,0,0,0,1.025-1.0836c0-1.65-3.0255-1.5226-3.0255-3.5232,0-1.24.9169-1.757,2.1763-1.757a2.8916,2.8916,0,0,1,1.5326.3614,9.49,9.49,0,0,1,.1065,1.493Z"/><path class="cls-2" d="M151.3715,23.3262c0,.9665,0,1.0836.4589,1.1514l.2344.03v.2534H149.41v-.2534l.2336-.03c.4589-.0678.4589-.1849.4589-1.1514V19.7643c0-.9764,0-1.0935-.4589-1.1612l-.2336-.03V18.32h2.655v.2534l-.2344.03c-.4589.0677-.4589.1848-.4589,1.1513Z"/><path class="cls-2" d="M153.2146,21.6671a3.3451,3.3451,0,0,1,3.5042-3.4935,3.1084,3.1084,0,0,1,3.4159,3.24,3.3475,3.3475,0,0,1-3.5141,3.4935,3.1054,3.1054,0,0,1-3.406-3.24m3.5133,2.87c1.3667,0,1.9815-1.337,1.9815-2.8885,0-1.611-.5859-3.104-2.0979-3.104-1.3575,0-1.9724,1.337-1.9724,2.8886,0,1.61.586,3.1039,2.0888,3.1039"/><path class="cls-2" d="M161.1759,24.5075l.2929-.0388c.4292-.0586.4292-.42.4292-1.7083V18.32a3.342,3.342,0,0,1,.4779-.0678l4.3731,4.6943V20.32c0-1.59-.0783-1.6589-.5958-1.7175l-.2831-.0289V18.32h2.1863v.2541l-.293.0388c-.4292.0586-.4292.42-.4292,1.7076v4.4409a2.73,2.73,0,0,1-.5075.0784l-4.3428-4.6357v2.5955c0,1.5326.0776,1.6011.5951,1.6787l.2831.03v.2534h-2.1862Z"/><path class="cls-2" d="M168.3366,24.5073l.2443-.0586c.2245-.0685.3614-.1857.6346-.8584l2.0881-5.27a2.4387,2.4387,0,0,1,.5859-.1172l2.069,5.5048c.156.4192.2732.6726.6149.751l.2442.0487v.2534h-2.7622v-.2534l.39-.0586c.1955-.0289.3317-.0875.3317-.2245a1.0022,1.0022,0,0,0-.0776-.3317l-.5372-1.474a3.7312,3.7312,0,0,0-.9756-.1172,3.08,3.08,0,0,0-.9177.1271l-.3812,1.0638a4.0855,4.0855,0,0,0-.194.6932c0,.1461.0875.1948.2533.2245l.5266.0974v.2534h-2.1375Zm2.06-2.518a5.8633,5.8633,0,0,1,.8-.0586c.2047,0,.5464.02.82.0487l-.81-2.244h-.0191Z"/><path class="cls-2" d="M175.3427,24.5075l.2336-.03c.4588-.0875.4588-.0487.4588-1.1612V19.7348c0-.9466,0-1.0638-.4588-1.1323l-.2336-.0289V18.32h2.6542v.2541l-.2336.0289c-.46.0685-.46.1857-.46,1.1323v4.5193a4.0372,4.0372,0,0,0,.8986.1362c1.3751,0,1.3857-.6635,1.6688-1.4739l.3516.0684a7.0212,7.0212,0,0,1-.3425,1.7761h-4.5375Z"/><path class="cls-2" d="M183.889,21.6671a3.3448,3.3448,0,0,1,3.5034-3.4935,3.109,3.109,0,0,1,3.4167,3.24,3.3475,3.3475,0,0,1-3.5141,3.4935,3.1053,3.1053,0,0,1-3.406-3.24m3.5133,2.87c1.3666,0,1.9815-1.337,1.9815-2.8885,0-1.611-.5852-3.104-2.0979-3.104-1.3568,0-1.9724,1.337-1.9724,2.8886,0,1.61.5859,3.1039,2.0888,3.1039"/><path class="cls-2" d="M191.9482,24.5075l.2237-.03c.4687-.0578.4687-.0776.4687-1.1513V19.7546c0-1.025,0-1.0737-.4588-1.1521l-.2336-.0289V18.32h4.4987a10.6515,10.6515,0,0,1,.1073,1.5812l-.3515.0388c-.2055-.9169-.2534-1.2487-1.5219-1.2487h-.7716v2.7128h.7609c.7617,0,.9565,0,1.025-.4193l.0586-.3417h.2542v1.9618h-.2542l-.0479-.3706c-.0792-.39-.3227-.39-1.025-.39h-.7716v1.4831c0,1.044,0,1.0737.4679,1.1513l.2253.03v.2534h-2.6542Z"/><path class="cls-2" d="M197.2558,24.5075l.2244-.03c.4688-.0578.4688-.0776.4688-1.1513V19.7546c0-1.025,0-1.0737-.46-1.1521l-.2336-.0289V18.32h4.4987a10.5449,10.5449,0,0,1,.1073,1.5812l-.3516.0388c-.2047-.9169-.2534-1.2487-1.5219-1.2487h-.7708v2.7128h.7609c.761,0,.9558,0,1.025-.4193l.0586-.3417h.2534v1.9618h-.2534l-.0487-.3706c-.0791-.39-.3226-.39-1.025-.39h-.7708v1.4831c0,1.044,0,1.0737.4672,1.1513l.2252.03v.2534h-2.6541Z"/><path class="cls-2" d="M204.5347,23.3262c0,.9665,0,1.0836.4588,1.1514l.2344.03v.2534H202.573v-.2534l.2343-.03c.4581-.0678.4581-.1849.4581-1.1514V19.7643c0-.9764,0-1.0935-.4581-1.1612l-.2343-.03V18.32h2.6549v.2534l-.2344.03c-.4588.0677-.4588.1848-.4588,1.1513Z"/><path class="cls-2" d="M212.3409,22.77a5.77,5.77,0,0,1-.3805,1.7471,4.8284,4.8284,0,0,1-2.0492.39c-1.8347,0-3.64-.79-3.64-3.3375a3.359,3.359,0,0,1,3.6693-3.3961,4.2647,4.2647,0,0,1,2.03.4291,5.9553,5.9553,0,0,1,.1659,1.6011l-.3516.0487a1.81,1.81,0,0,0-1.8734-1.7083c-1.3758,0-2.2151,1.1619-2.2151,2.8794,0,.3219,0,3.1131,2.2546,3.1131a2.1094,2.1094,0,0,0,2.0394-1.8248Z"/><path class="cls-2" d="M213.1689,24.5075l.2336-.03c.46-.0875.46-.0578.46-1.1612V19.7645c0-1.1034,0-1.0539-.46-1.162l-.2336-.0289V18.32h4.4987a7.195,7.195,0,0,1,.1172,1.5812l-.3516.0487c-.2533-1.2388-.5752-1.2586-1.6-1.2586h-.7024v2.5081h.6628c.869,0,1.006-.01,1.0646-.4193l.0487-.3424h.2534V22.38h-.2534l-.0487-.3128c-.0685-.4292-.2146-.4292-1.025-.4292h-.7024v2.6063a4.2448,4.2448,0,0,0,.9854.1461c1.4634,0,1.5706-.7518,1.7662-1.4838l.3516.0684a6.9107,6.9107,0,0,1-.3219,1.786h-4.743Z"/><path class="cls-2" d="M221.9694,24.5075l.2245-.03c.4687-.0578.4687-.0776.4687-1.1513V19.7546c0-1.025,0-1.0737-.46-1.1521l-.2336-.0289V18.32h4.4988a10.5581,10.5581,0,0,1,.1072,1.5812l-.3515.0388c-.2047-.9169-.2534-1.2487-1.5227-1.2487H223.93v2.7128h.7617c.7617,0,.9557,0,1.025-.4193l.0586-.3417h.2534v1.9618h-.2534l-.0495-.3706c-.0784-.39-.3219-.39-1.025-.39H223.93v1.4831c0,1.044,0,1.0737.468,1.1513l.2252.03v.2534h-2.6542Z"/><path class="cls-2" d="M227.4133,21.6671a3.345,3.345,0,0,1,3.5041-3.4935,3.1078,3.1078,0,0,1,3.4152,3.24,3.3469,3.3469,0,0,1-3.5133,3.4935,3.1053,3.1053,0,0,1-3.406-3.24m3.5133,2.87c1.3666,0,1.9815-1.337,1.9815-2.8885,0-1.611-.586-3.104-2.098-3.104-1.3567,0-1.9724,1.337-1.9724,2.8886,0,1.61.5867,3.1039,2.0889,3.1039"/><path class="cls-2" d="M237.4728,23.3265c0,.9664,0,1.0836.4588,1.1513l.2344.03v.2534h-2.655v-.2534l.2344-.03c.4581-.0677.4581-.1849.4581-1.1612v-3.562c0-.9862,0-1.0836-.468-1.1521l-.2245-.0288V18.32h2.811c.8979,0,2.3034.0981,2.3034,1.63a1.9411,1.9411,0,0,1-1.25,1.6695,15.5534,15.5534,0,0,0,1.5615,2.6253.8417.8417,0,0,0,.6247.2633v.2534h-.8492a1.6484,1.6484,0,0,1-1.5813-1.0539l-.37-.7221c-.3417-.6537-.3607-1.0151-.9764-1.0151h-.3119Zm0-1.7273h.4778a1.2988,1.2988,0,0,0,1.4055-1.5029,1.3086,1.3086,0,0,0-1.3758-1.4055,1.7722,1.7722,0,0,0-.5075.0685Z"/><path class="cls-2" d="M99.5767,40.6405c0,1.7175,0,1.9253.8158,2.0463l.4154.0525v.45H96.0908v-.45l.4162-.0525c.815-.121.815-.3288.815-2.0463v-6.33c0-1.7342,0-1.942-.815-2.0637l-.4162-.0517v-.4513h4.7171v.4513l-.4154.0517c-.8158.1217-.8158.3295-.8158,2.0462Z"/><path class="cls-2" d="M102.8733,42.7389l.52-.0692c.7633-.1043.7633-.7457.7633-3.0347v-7.89a5.8115,5.8115,0,0,1,.85-.1217l7.7692,8.3415V35.3c0-2.8269-.1384-2.9487-1.0577-3.0529l-.503-.0518v-.45H115.1v.45l-.5205.0693c-.7632.1042-.7632.7457-.7632,3.0354v7.8895a4.8509,4.8509,0,0,1-.901.1393l-7.7175-8.2373v4.6129c0,2.7226.1385,2.8444,1.0577,2.9829l.503.0517v.45h-3.8847Z"/><path class="cls-2" d="M120.0961,32.4033h-.694c-1.96,0-2.15.4506-2.601,2.324h-.6239c0-.2777.156-2.6017.2252-2.9829h9.642c.07.3812.226,2.7052.226,2.9829h-.6247c-.4513-1.8734-.6415-2.324-2.6017-2.324h-.6933v8.2724c0,1.7684,0,1.8376,1.127,2.0112l.4163.0524v.45h-5.3419v-.45l.417-.0524c1.127-.1736,1.127-.2428,1.127-2.0112Z"/><path class="cls-2" d="M127.59,42.7389l.4155-.0517c.8157-.156.8157-.1042.8157-2.0637V34.3106c0-1.9594,0-1.8727-.8157-2.0636l-.4155-.0518v-.45h7.9953a12.7976,12.7976,0,0,1,.2078,2.8087l-.6248.0868c-.4512-2.2023-1.0235-2.2372-2.8444-2.2372h-1.248V36.86h1.1787c1.544,0,1.7868-.0168,1.89-.7458l.0868-.6065h.4512v3.451h-.4512l-.0868-.5548c-.121-.7632-.382-.7632-1.8209-.7632h-1.248v4.63a7.5109,7.5109,0,0,0,1.7517.26c2.601,0,2.7912-1.3362,3.1382-2.6367l.6247.1218a12.2821,12.2821,0,0,1-.573,3.1731H127.59Z"/><path class="cls-2" d="M141.9685,40.64c0,1.7175,0,1.9252.8142,2.0469l.417.0518V43.19h-4.7171v-.4512l.4162-.0518c.815-.1217.815-.3294.815-2.0636v-6.33c0-1.7517,0-1.9252-.8325-2.047l-.3987-.0517v-.45h4.9941c1.5957,0,4.0931.1727,4.0931,2.8954a3.4481,3.4481,0,0,1-2.22,2.9662,27.5589,27.5589,0,0,0,2.7752,4.6646,1.4913,1.4913,0,0,0,1.1095.468V43.19h-1.509a2.93,2.93,0,0,1-2.8094-1.8727l-.659-1.2837c-.6064-1.162-.6415-1.8034-1.7342-1.8034h-.5547Zm0-3.069h.85A2.3076,2.3076,0,0,0,145.3159,34.9a2.3253,2.3253,0,0,0-2.4457-2.4967,3.1391,3.1391,0,0,0-.9017.121Z"/><path class="cls-2" d="M150.3468,42.7389l.52-.0692c.7625-.1043.7625-.7457.7625-3.0347v-7.89a5.8115,5.8115,0,0,1,.85-.1217l7.7693,8.3415V35.3c0-2.8269-.1385-2.9487-1.0577-3.0529l-.503-.0518v-.45h3.8846v.45l-.52.0693c-.7632.1042-.7632.7457-.7632,3.0354v7.8895a4.866,4.866,0,0,1-.9025.1393l-7.7168-8.2373v4.6129c0,2.7226.1385,2.8444,1.057,2.9829l.5037.0517v.45h-3.8846Z"/><path class="cls-2" d="M163.5116,42.7388l.4337-.1035c.3988-.1217.6415-.33,1.1278-1.5257l3.71-9.365a4.4037,4.4037,0,0,1,1.0409-.2085l3.6762,9.7813c.2777.7457.4862,1.1962,1.0927,1.3347l.4337.0867V43.19h-4.9081v-.4513l.694-.1035c.347-.0525.59-.156.59-.3987a1.7594,1.7594,0,0,0-.1392-.59l-.9535-2.6192a6.61,6.61,0,0,0-1.7342-.2078,5.4425,5.4425,0,0,0-1.63.2253l-.6765,1.89a7.1808,7.1808,0,0,0-.347,1.2312c0,.26.156.347.4505.3987l.9367.1735V43.19h-3.7979Zm3.6594-4.4736a10.3934,10.3934,0,0,1,1.4222-.1042c.3637,0,.971.035,1.4565.0867l-1.439-3.9889h-.035Z"/><path class="cls-2" d="M178.4447,32.4033h-.694c-1.9595,0-2.15.4506-2.6009,2.324h-.624c0-.2777.156-2.6017.2252-2.9829h9.642c.0693.3812.226,2.7052.226,2.9829h-.6247c-.4513-1.8734-.6415-2.324-2.6017-2.324h-.6932v8.2724c0,1.7684,0,1.8376,1.1269,2.0112l.4163.0524v.45h-5.3419v-.45l.417-.0524c1.127-.1736,1.127-.2428,1.127-2.0112Z"/><path class="cls-2" d="M189.7886,40.6405c0,1.7175,0,1.9253.8158,2.0463l.4154.0525v.45h-4.7171v-.45l.4162-.0525c.815-.121.815-.3288.815-2.0463v-6.33c0-1.7342,0-1.942-.815-2.0637l-.4162-.0517v-.4513H191.02v.4513l-.4154.0517c-.8158.1217-.8158.3295-.8158,2.0462Z"/><path class="cls-2" d="M193.1541,37.6926A5.9437,5.9437,0,0,1,199.38,31.484c3.3474,0,6.07,1.89,6.07,5.7573A5.9488,5.9488,0,0,1,199.206,43.45c-3.33,0-6.0519-1.89-6.0519-5.7573m6.2429,5.0983c2.4282,0,3.52-2.3757,3.52-5.1326,0-2.8619-1.04-5.5154-3.7286-5.5154-2.4107,0-3.5027,2.3757-3.5027,5.1334,0,2.8612,1.04,5.5146,3.7112,5.5146"/><path class="cls-2" d="M207.3943,42.7389l.5205-.0692c.7624-.1043.7624-.7457.7624-3.0347v-7.89a5.8115,5.8115,0,0,1,.85-.1217l7.7693,8.3415V35.3c0-2.8269-.1385-2.9487-1.0577-3.0529l-.503-.0518v-.45H219.62v.45l-.52.0693c-.7632.1042-.7632.7457-.7632,3.0354v7.8895a4.8677,4.8677,0,0,1-.9017.1393l-7.7176-8.2373v4.6129c0,2.7226.1385,2.8444,1.0577,2.9829l.503.0517v.45h-3.8846Z"/><path class="cls-2" d="M220.2119,42.7388l.4338-.1035c.3987-.1217.6414-.33,1.1277-1.5257l3.7111-9.365a4.4,4.4,0,0,1,1.04-.2085l3.6769,9.7813c.2769.7457.4854,1.1962,1.0919,1.3347l.4338.0867V43.19h-4.9082v-.4513l.6933-.1035c.3477-.0525.5905-.156.5905-.3987a1.76,1.76,0,0,0-.1393-.59l-.9534-2.6192a6.6153,6.6153,0,0,0-1.7343-.2078,5.45,5.45,0,0,0-1.63.2253l-.6765,1.89a7.1808,7.1808,0,0,0-.347,1.2312c0,.26.156.347.4505.3987l.9367.1735V43.19h-3.7979Zm3.6594-4.4736a10.3945,10.3945,0,0,1,1.4222-.1042c.3638,0,.971.035,1.4565.0867l-1.44-3.9889h-.0343Z"/><path class="cls-2" d="M233.0991,42.7389l.4162-.0517c.815-.156.815-.0867.815-2.0637V34.2589c0-1.6825,0-1.89-.815-2.0119l-.4162-.0518v-.45h4.7171v.45l-.4162.0518c-.815.1217-.815.3294-.815,2.0119v8.03a7.1261,7.1261,0,0,0,1.5957.2428c2.4449,0,2.4624-1.1795,2.9654-2.6192l.624.1217a12.5475,12.5475,0,0,1-.6065,3.1557h-8.0645Z"/><path class="cls-2" d="M96.1258,61.1679l.4163-.0517c.8149-.156.8149-.0867.8149-2.0637V52.6879c0-1.6816,0-1.89-.8149-2.0119l-.4163-.0518v-.4505h4.7172v.4505l-.4163.0518c-.815.1217-.815.33-.815,2.0119v8.03a7.1207,7.1207,0,0,0,1.595.2427c2.4457,0,2.4632-1.1795,2.9654-2.6184l.6248.121a12.5294,12.5294,0,0,1-.6073,3.1564H96.1258Z"/><path class="cls-2" d="M106.602,61.1679l.4163-.0517c.8149-.156.8149-.1042.8149-2.0637V52.74c0-1.9594,0-1.8727-.8149-2.0637l-.4163-.0518v-.4505h7.9953a12.8012,12.8012,0,0,1,.2078,2.81l-.6248.0867c-.4505-2.2029-1.0234-2.2379-2.8444-2.2379H110.088v4.4569h1.1794c1.5432,0,1.786-.0168,1.8895-.7458l.0867-.6065h.4512v3.451h-.4512l-.0867-.5548c-.121-.7632-.3813-.7632-1.821-.7632H110.088V60.7a7.5155,7.5155,0,0,0,1.7517.26c2.6009,0,2.7911-1.3354,3.1389-2.6359l.6239.1217a12.2938,12.2938,0,0,1-.5722,3.1732H106.602Z"/><path class="cls-2" d="M116.7314,61.168l.4338-.1035c.4-.1217.6414-.33,1.1277-1.5264l3.7112-9.3651a4.3884,4.3884,0,0,1,1.04-.2077l3.6761,9.7812c.2778.7458.4863,1.1963,1.0928,1.3348l.4337.0867v.4512h-4.9081V61.168l.6939-.1035c.347-.0525.59-.1567.59-.4a1.7844,1.7844,0,0,0-.1385-.59l-.9542-2.6184a6.6116,6.6116,0,0,0-1.7343-.2078,5.4494,5.4494,0,0,0-1.63.2252l-.6765,1.89a7.2487,7.2487,0,0,0-.347,1.232c0,.26.1568.3463.4505.3988l.9375.1727v.4512h-3.7987Zm3.6594-4.4744a10.39,10.39,0,0,1,1.4223-.1035c.3637,0,.9709.0343,1.4564.086l-1.4389-3.9881h-.0351Z"/><path class="cls-2" d="M129.6533,61.1682l.4163-.0518c.815-.121.815-.2952.815-2.0636V52.74c0-1.8559,0-1.9077-.815-2.0637l-.4163-.0517v-.4513h5.4279c2.4282,0,6.6591.2778,6.6591,5.6539,0,1.162-.3638,5.7923-7.9421,5.7923h-4.1449Zm3.486-.4855a6.3314,6.3314,0,0,0,1.6991.2778c2.7745,0,4.37-1.9077,4.37-5.1509,0-3.3817-1.8035-4.9774-4.6471-4.9774a7.6926,7.6926,0,0,0-1.4222.1568Z"/><path class="cls-2" d="M143.8936,61.1679l.4163-.0517c.8149-.156.8149-.1042.8149-2.0637V52.74c0-1.9594,0-1.8727-.8149-2.0637l-.4163-.0518v-.4505h7.9953a12.8012,12.8012,0,0,1,.2078,2.81l-.6248.0867c-.4505-2.2029-1.0235-2.2379-2.8444-2.2379H147.38v4.4569h1.1795c1.5432,0,1.7867-.0168,1.8894-.7458l.0875-.6065h.4505v3.451h-.4505l-.0875-.5548c-.12-.7632-.38-.7632-1.8209-.7632H147.38V60.7a7.5234,7.5234,0,0,0,1.7517.26c2.601,0,2.7919-1.3354,3.139-2.6359l.6247.1217a12.2642,12.2642,0,0,1-.573,3.1732h-8.4283Z"/><path class="cls-2" d="M158.2725,59.07c0,1.7167,0,1.9252.8149,2.0462l.4163.0517v.4513h-4.7172v-.4513l.4163-.0517c.815-.121.815-.3295.815-2.0637v-6.33c0-1.7517,0-1.9252-.8325-2.0469l-.3988-.0518v-.4505h4.9942c1.5957,0,4.0931.1728,4.0931,2.8962a3.4478,3.4478,0,0,1-2.22,2.9654A27.5923,27.5923,0,0,0,164.4285,60.7a1.4934,1.4934,0,0,0,1.11.4679v.4513H164.03a2.9293,2.9293,0,0,1-2.8094-1.8727l-.659-1.2829c-.6072-1.1628-.6415-1.8043-1.7342-1.8043h-.5547Zm0-3.07h.8492a2.3079,2.3079,0,0,0,2.4982-2.6709,2.3265,2.3265,0,0,0-2.4457-2.4975,3.1427,3.1427,0,0,0-.9017.1218Z"/><path class="cls-2" d="M173.4488,53.2083c-.2252-.885-.5547-2.6359-2.4457-2.6359a1.6473,1.6473,0,0,0-1.7342,1.7342c0,2.6709,5.55,2.4966,5.55,6.2086,0,2.4624-2.1862,3.3641-4.2667,3.3641a6.36,6.36,0,0,1-3.0521-.6939,8.01,8.01,0,0,1-.503-3.26l.8157-.1735c.242,1.041.8142,3.4685,3.034,3.4685a1.7675,1.7675,0,0,0,1.8209-1.9253c0-2.93-5.3761-2.7051-5.3761-6.26,0-2.2022,1.63-3.1214,3.8679-3.1214a5.1392,5.1392,0,0,1,2.7227.6415,16.7962,16.7962,0,0,1,.191,2.6534Z"/><path class="cls-2" d="M178.3584,52.74c0-1.7342,0-1.9419-.8158-2.0636l-.4154-.0518v-.4512h4.7171v.4512l-.4162.0518c-.815.1217-.815.3294-.815,2.0469V55.255H185.85V52.74c0-1.7342,0-1.9419-.8149-2.0636l-.4155-.0518v-.4512h4.7164v.4512l-.3988.0518c-.8325.1217-.8325.3294-.8325,2.0636v6.3129c0,1.7342,0,1.9427.8325,2.0629l.3988.0526V61.62H184.62v-.4512l.4155-.0526c.8149-.12.8149-.3287.8149-2.0629V56.035h-5.2368V59.07c0,1.7167,0,1.9252.815,2.0454l.4162.0526V61.62h-4.7171v-.4512l.4154-.0526c.8158-.12.8158-.3287.8158-2.0454Z"/><path class="cls-2" d="M195.3042,59.07c0,1.7168,0,1.9252.815,2.0462l.4162.0518v.4512h-4.7171v-.4512l.4162-.0518c.815-.121.815-.3294.815-2.0462V52.74c0-1.7342,0-1.9419-.815-2.0637l-.4162-.0518v-.4512h4.7171v.4512l-.4162.0518c-.815.1218-.815.33-.815,2.047Z"/><path class="cls-2" d="M199.0168,61.1679l.4163-.0517c.8149-.0867.8149-.3295.8149-2.0462V52.74c0-1.6992,0-1.9594-.8149-2.0637l-.4163-.0518v-.4505H203.63c2.1329,0,4.63.3813,4.63,3.07,0,2.93-2.8437,3.6761-4.6654,3.7286v-.66a2.4618,2.4618,0,0,0,2.4107-2.8261,2.4561,2.4561,0,0,0-2.6527-2.6542,3.4812,3.4812,0,0,0-.8507.1217V59.07c0,1.7167.0175,1.9595.8332,2.0462l.659.0517v.4513h-4.9774Z"/><path class="cls-3" d="M42.94,0A42.6829,42.6829,0,0,0,14.9985,74.9726a.5645.5645,0,0,1,.0844-.47.5724.5724,0,0,1,.4733-.22s-.6293-.5677-.1286-.9824c0,0-1.9061-1.1551-.885-2.1847a40.1855,40.1855,0,1,1,56.8415-.048c.8956,1.0159-.9322,2.13-.9322,2.13.5038.4133-.124.9824-.124.9824a.572.572,0,0,1,.471.2184A.6507.6507,0,0,1,70.8484,75,42.6815,42.6815,0,0,0,42.94,0"/><path class="cls-2" d="M42.7625,3.5916l-.0662-.1492A39.2476,39.2476,0,0,0,15.3227,70.6016c.1826-.1332.42-.4626-.0213-1.2137l.347-.2823.16-.4718.5349-.0974.9489-.5669,1.0722-.1887a1.2935,1.2935,0,0,0,1.4207-1.67,3.4,3.4,0,0,1,.03-2.8422c.6658-1.83-.0936-2.588-.0936-2.588l.0327-.9154-.7587-.9809s-1.1361-1.2578.6651-1.8262l.4383-.38.0967-.4429s1.1368-.6011.8515-1.2639c-.2824-.6613-.0929-.9778-.0929-.9778l.5365-.5974.6-.0312a4.6142,4.6142,0,0,0,1.6726-3.1906c.3774-2.3636,1.6414-10.7918,11.68-16.0272l.47-1.2959-.156-.6-.6955-.8515s-.0944-.439.665-.121c.7572.3151.7892.0609.7892.0609s1.827-.51,2.0811-1.6124a.9615.9615,0,0,1-.5037-.9763l.6947-.5646.3136-.9824L39.07,22.212l-.4087-.9131L38.85,20.95l-.6-.885s-.6932-.5692,0-.9785c.6956-.41,1.6734-.9124,1.6734-.9124a2.1691,2.1691,0,0,1,.66-1.8963,3.6688,3.6688,0,0,0,.9481-2.3049l.0312-.7237-.2526-.347a2.5178,2.5178,0,0,1,.5677-1.4511c.5692-.6932.506-1.1377.0312-1.4861-.4741-.3433-.0929-1.1034-.0929-1.1034l-.19-.8858.3448-.3089-.4087-.82.2207-.8842.726-1.267s-.3493-.9489.2533-1.1041M22.707,29.3923l-2.0927,1.872.5776,2.7455.3021,1.4329-1.2662-.7374-2.4206-1.4108-2.4343,1.3971-1.2708.73.3113-1.4322.595-2.7378-2.0842-1.88-1.0867-.98,1.4557-.15,2.7912-.2877L17.23,25.3959l.5981-1.3355.59,1.3385,1.1323,2.5652,2.7912.2967,1.4572.1545Z"/><path class="cls-2" d="M43.6105,3.4535l.32.828A3.0247,3.0247,0,0,0,43.8981,6.15c.3455.7556.6628,2.6526-.2838,2.9677l.2534,1.1034-.0335.3766s.315.2839.315.5083l.19.7252.2747.331s.019.4855-.3067.5205l.5365.3813a2.8909,2.8909,0,0,0,.2511,2.712l.5387.1872.3478.8515-.6955-.09.41.407.1256.2192.1354.72s.9779.5044,1.6734.9131c.6962.41,0,.9778,0,.9778l-.6.8858.1895.3485-.41.91L46.7791,27l.3173.9793.6924.5655a.9628.9628,0,0,1-.5029.9778c.2511,1.1041,2.0812,1.6124,2.0812,1.6124s.0334.25.7875-.0654c.7587-.3189.6659.1248.6659.1248l-.6963.8538-.1568.6.4711,1.2935c10.0384,5.2354,11.3031,13.6614,11.6821,16.031a4.6036,4.6036,0,0,0,1.671,3.1861l.6.0319.5364.6s.191.3158-.0943.98c-.2831.66.8522,1.2616.8522,1.2616l.0967.44.4406.3789c1.7988.5692.6627,1.8286.6627,1.8286l-.7571.9786.0312.9177s-.7571.7556-.0928,2.59a3.3878,3.3878,0,0,1,.03,2.8406,1.2933,1.2933,0,0,0,1.4192,1.6719l1.0729.1856.949.5677.5364.1.1575.47.3478.2838c-.5007.8523-.1309,1.1627.0441,1.2556A39.2456,39.2456,0,0,0,43.6105,3.4535M71.3585,34.01l.3021,1.4329-1.2655-.7374-2.4213-1.41L65.54,34.692l-1.2708.729L64.58,33.99l.5958-2.7387-2.085-1.88-1.0867-.98,1.4558-.15,2.7911-.2876,1.1452-2.5576.5982-1.3354.5912,1.3392,1.1315,2.5652,2.7912.296,1.4572.1552-1.0919.9763L70.781,31.2647Z"/><polygon class="cls-3" points="22.273 28.908 19.108 28.571 17.823 25.661 16.524 28.561 13.36 28.888 15.725 31.021 15.049 34.128 17.809 32.543 20.556 34.144 19.901 31.03 22.273 28.908"/><polygon class="cls-3" points="72.44 28.908 69.274 28.571 67.99 25.661 66.691 28.561 63.527 28.888 65.891 31.021 65.216 34.128 67.977 32.543 70.722 34.144 70.067 31.03 72.44 28.908"/></svg>